<?xml version="1.0" encoding="UTF-8" standalone="no"?>
<svg
   version="1.2"
   width="215.9mm"
   height="279.4mm"
   viewBox="0 0 21590 27940"
   preserveAspectRatio="xMidYMid"
   fill-rule="evenodd"
   stroke-width="28.222"
   stroke-linejoin="round"
   xml:space="preserve"
   id="svg282"
   sodipodi:docname="HSV_pipeline_flowchart.svg"
   inkscape:version="1.4.3 (fcd0343856, 2026-01-01)"
   xmlns:inkscape="http://www.inkscape.org/namespaces/inkscape"
   xmlns:sodipodi="http://sodipodi.sourceforge.net/DTD/sodipodi-0.dtd"
   xmlns="http://www.w3.org/2000/svg"
   xmlns:svg="http://www.w3.org/2000/svg"
   xmlns:ooo="http://xml.openoffice.org/svg/export"><sodipodi:namedview
   id="namedview282"
   pagecolor="#ffffff"
   bordercolor="#000000"
   borderopacity="0.25"
   inkscape:showpageshadow="2"
   inkscape:pageopacity="0.0"
   inkscape:pagecheckerboard="0"
   inkscape:deskcolor="#d1d1d1"
   inkscape:document-units="mm"
   inkscape:zoom="0.73958335"
   inkscape:cx="407.66196"
   inkscape:cy="744.33801"
   inkscape:window-width="1850"
   inkscape:window-height="1009"
   inkscape:window-x="0"
   inkscape:window-y="0"
   inkscape:window-maximized="1"
   inkscape:current-layer="svg282" />
 <defs
   class="ClipPathGroup"
   id="defs2">
  <clipPath
   id="presentation_clip_path"
   clipPathUnits="userSpaceOnUse">
   <rect
   x="0"
   y="0"
   width="21590"
   height="27940"
   id="rect1" />
  </clipPath>
  <clipPath
   id="presentation_clip_path_shrink"
   clipPathUnits="userSpaceOnUse">
   <rect
   x="21"
   y="27"
   width="21547"
   height="27885"
   id="rect2" />
  </clipPath>
 </defs>
 <defs
   id="defs44">
  <font
   id="EmbeddedFont_1"
   horiz-adv-x="2048">
   <font-face
   font-family="Liberation Sans embedded"
   units-per-em="2048"
   font-weight="normal"
   font-style="normal"
   ascent="1863"
   descent="445"
   id="font-face2" />
   <missing-glyph
   horiz-adv-x="2048"
   d="M 0,0 L 2047,0 2047,2047 0,2047 0,0 Z"
   id="missing-glyph2" />
   <glyph
   unicode="y"
   horiz-adv-x="1038"
   d="M 191,-425 C 142,-425 100,-421 67,-414 L 67,-279 C 92,-283 120,-285 151,-285 263,-285 352,-203 417,-38 L 434,5 5,1082 197,1082 425,484 C 428,475 432,464 437,451 442,438 457,394 482,320 507,246 521,205 523,196 L 593,393 830,1082 1020,1082 604,0 C 559,-115 518,-201 479,-258 440,-314 398,-356 351,-384 304,-411 250,-425 191,-425 Z"
   id="glyph2" />
   <glyph
   unicode="x"
   horiz-adv-x="996"
   d="M 801,0 L 510,444 217,0 23,0 408,556 41,1082 240,1082 510,661 778,1082 979,1082 612,558 1002,0 801,0 Z"
   id="glyph3" />
   <glyph
   unicode="v"
   horiz-adv-x="1038"
   d="M 613,0 L 400,0 7,1082 199,1082 437,378 C 446,351 469,272 506,141 L 541,258 580,376 826,1082 1017,1082 613,0 Z"
   id="glyph4" />
   <glyph
   unicode="u"
   horiz-adv-x="890"
   d="M 314,1082 L 314,396 C 314,325 321,269 335,230 349,191 371,162 402,145 433,128 478,119 537,119 624,119 692,149 742,208 792,267 817,350 817,455 L 817,1082 997,1082 997,231 C 997,105 999,28 1003,0 L 833,0 C 832,3 832,12 831,27 830,42 830,59 829,78 828,97 826,132 825,185 L 822,185 C 781,110 733,58 679,27 624,-4 557,-20 476,-20 357,-20 271,10 216,69 161,128 133,225 133,361 L 133,1082 314,1082 Z"
   id="glyph5" />
   <glyph
   unicode="t"
   horiz-adv-x="552"
   d="M 554,8 C 495,-8 434,-16 372,-16 228,-16 156,66 156,229 L 156,951 31,951 31,1082 163,1082 216,1324 336,1324 336,1082 536,1082 536,951 336,951 336,268 C 336,216 345,180 362,159 379,138 408,127 450,127 474,127 509,132 554,141 L 554,8 Z"
   id="glyph6" />
   <glyph
   unicode="s"
   horiz-adv-x="912"
   d="M 950,299 C 950,197 912,118 835,63 758,8 650,-20 511,-20 376,-20 273,2 200,47 127,91 79,160 57,254 L 216,285 C 231,227 263,185 311,158 359,131 426,117 511,117 602,117 669,131 712,159 754,187 775,229 775,285 775,328 760,362 731,389 702,416 654,438 589,455 L 460,489 C 357,516 283,542 240,568 196,593 162,624 137,661 112,698 100,743 100,796 100,895 135,970 206,1022 276,1073 378,1099 513,1099 632,1099 727,1078 798,1036 868,994 912,927 931,834 L 769,814 C 759,862 732,899 689,925 645,950 586,963 513,963 432,963 372,951 333,926 294,901 275,864 275,814 275,783 283,758 299,738 315,718 339,701 370,687 401,673 467,654 568,629 663,605 732,583 774,563 816,542 849,520 874,495 898,470 917,442 930,410 943,377 950,340 950,299 Z"
   id="glyph7" />
   <glyph
   unicode="r"
   horiz-adv-x="530"
   d="M 142,0 L 142,830 C 142,906 140,990 136,1082 L 306,1082 C 311,959 314,886 314,861 L 318,861 C 347,954 380,1017 417,1051 454,1085 507,1102 575,1102 599,1102 623,1099 648,1092 L 648,927 C 624,934 592,937 552,937 477,937 420,905 381,841 342,776 322,684 322,564 L 322,0 142,0 Z"
   id="glyph8" />
   <glyph
   unicode="q"
   horiz-adv-x="932"
   d="M 484,-20 C 347,-20 246,26 182,119 118,212 86,351 86,536 86,913 219,1102 484,1102 566,1102 634,1088 687,1059 740,1030 785,981 821,914 L 823,914 C 823,934 824,969 827,1018 830,1067 832,1093 835,1096 L 1008,1096 C 1003,1057 1001,958 1001,801 L 1001,-425 821,-425 821,14 825,178 823,178 C 787,107 743,56 690,26 637,-5 569,-20 484,-20 Z M 821,554 C 821,695 798,799 752,867 706,935 633,969 532,969 441,969 375,935 335,867 295,799 275,691 275,542 275,391 295,282 336,217 376,152 441,119 530,119 632,119 706,155 752,228 798,301 821,409 821,554 Z"
   id="glyph9" />
   <glyph
   unicode="p"
   horiz-adv-x="932"
   d="M 1053,546 C 1053,169 920,-20 655,-20 488,-20 376,43 319,168 L 314,168 C 317,163 318,106 318,-2 L 318,-425 138,-425 138,861 C 138,972 136,1046 132,1082 L 306,1082 C 307,1079 308,1070 309,1054 310,1037 312,1012 314,978 315,944 316,921 316,908 L 320,908 C 352,975 394,1024 447,1055 500,1086 569,1101 655,1101 788,1101 888,1056 954,967 1020,878 1053,737 1053,546 Z M 864,542 C 864,693 844,800 803,865 762,930 698,962 609,962 538,962 482,947 442,917 401,887 371,840 350,777 329,713 318,630 318,528 318,386 341,281 386,214 431,147 505,113 607,113 696,113 762,146 803,212 844,277 864,387 864,542 Z"
   id="glyph10" />
   <glyph
   unicode="o"
   horiz-adv-x="974"
   d="M 1053,542 C 1053,353 1011,212 928,119 845,26 724,-20 565,-20 407,-20 288,28 207,125 126,221 86,360 86,542 86,915 248,1102 571,1102 736,1102 858,1057 936,966 1014,875 1053,733 1053,542 Z M 864,542 C 864,691 842,800 798,868 753,935 679,969 574,969 469,969 393,935 346,866 299,797 275,689 275,542 275,399 298,292 345,221 391,149 464,113 563,113 671,113 748,148 795,217 841,286 864,395 864,542 Z"
   id="glyph11" />
   <glyph
   unicode="n"
   horiz-adv-x="890"
   d="M 825,0 L 825,686 C 825,757 818,813 804,852 790,891 768,920 737,937 706,954 661,963 602,963 515,963 447,933 397,874 347,815 322,732 322,627 L 322,0 142,0 142,851 C 142,977 140,1054 136,1082 L 306,1082 C 307,1079 307,1070 308,1055 309,1040 310,1024 311,1005 312,986 313,950 314,897 L 317,897 C 358,972 406,1025 461,1056 515,1087 582,1102 663,1102 782,1102 869,1073 924,1014 979,955 1006,857 1006,721 L 1006,0 825,0 Z"
   id="glyph12" />
   <glyph
   unicode="m"
   horiz-adv-x="1462"
   d="M 768,0 L 768,686 C 768,791 754,863 725,903 696,943 645,963 570,963 493,963 433,934 388,875 343,816 321,734 321,627 L 321,0 142,0 142,851 C 142,977 140,1054 136,1082 L 306,1082 C 307,1079 307,1070 308,1055 309,1040 310,1024 311,1005 312,986 313,950 314,897 L 317,897 C 356,974 400,1027 450,1057 500,1087 561,1102 633,1102 715,1102 780,1086 828,1053 875,1020 908,968 927,897 L 930,897 C 967,970 1013,1022 1066,1054 1119,1086 1183,1102 1258,1102 1367,1102 1447,1072 1497,1013 1546,954 1571,856 1571,721 L 1571,0 1393,0 1393,686 C 1393,791 1379,863 1350,903 1321,943 1270,963 1195,963 1116,963 1055,934 1012,876 968,817 946,734 946,627 L 946,0 768,0 Z"
   id="glyph13" />
   <glyph
   unicode="l"
   horiz-adv-x="213"
   d="M 138,0 L 138,1484 318,1484 318,0 138,0 Z"
   id="glyph14" />
   <glyph
   unicode="i"
   horiz-adv-x="213"
   d="M 137,1312 L 137,1484 317,1484 317,1312 137,1312 Z M 137,0 L 137,1082 317,1082 317,0 137,0 Z"
   id="glyph15" />
   <glyph
   unicode="h"
   horiz-adv-x="890"
   d="M 317,897 C 356,968 402,1020 457,1053 511,1086 580,1102 663,1102 780,1102 867,1073 923,1015 978,956 1006,858 1006,721 L 1006,0 825,0 825,686 C 825,762 818,819 804,856 790,893 767,920 735,937 703,954 659,963 602,963 517,963 450,934 399,875 348,816 322,737 322,638 L 322,0 142,0 142,1484 322,1484 322,1098 C 322,1057 321,1015 319,972 316,929 315,904 314,897 L 317,897 Z"
   id="glyph16" />
   <glyph
   unicode="f"
   horiz-adv-x="573"
   d="M 361,951 L 361,0 181,0 181,951 29,951 29,1082 181,1082 181,1204 C 181,1303 203,1374 246,1417 289,1460 356,1482 445,1482 495,1482 537,1478 572,1470 L 572,1333 C 542,1338 515,1341 492,1341 446,1341 413,1329 392,1306 371,1283 361,1240 361,1179 L 361,1082 572,1082 572,951 361,951 Z"
   id="glyph17" />
   <glyph
   unicode="e"
   horiz-adv-x="974"
   d="M 276,503 C 276,379 302,283 353,216 404,149 479,115 578,115 656,115 719,131 766,162 813,193 844,233 861,281 L 1019,236 C 954,65 807,-20 578,-20 418,-20 296,28 213,123 129,218 87,360 87,548 87,727 129,864 213,959 296,1054 416,1102 571,1102 889,1102 1048,910 1048,527 L 1048,503 276,503 Z M 862,641 C 852,755 823,838 775,891 727,943 658,969 568,969 481,969 412,940 361,882 310,823 282,743 278,641 L 862,641 Z"
   id="glyph18" />
   <glyph
   unicode="d"
   horiz-adv-x="932"
   d="M 821,174 C 788,105 744,55 689,25 634,-5 565,-20 484,-20 347,-20 247,26 183,118 118,210 86,349 86,536 86,913 219,1102 484,1102 566,1102 634,1087 689,1057 744,1027 788,979 821,914 L 823,914 821,1035 821,1484 1001,1484 1001,223 C 1001,110 1003,36 1007,0 L 835,0 C 833,11 831,35 829,74 826,113 825,146 825,174 L 821,174 Z M 275,542 C 275,391 295,282 335,217 375,152 440,119 530,119 632,119 706,154 752,225 798,296 821,405 821,554 821,697 798,802 752,869 706,936 633,969 532,969 441,969 376,936 336,869 295,802 275,693 275,542 Z"
   id="glyph19" />
   <glyph
   unicode="c"
   horiz-adv-x="890"
   d="M 275,546 C 275,402 298,295 343,226 388,157 457,122 548,122 612,122 666,139 709,174 752,209 778,262 788,334 L 970,322 C 956,218 912,135 837,73 762,11 668,-20 553,-20 402,-20 286,28 207,124 127,219 87,359 87,542 87,724 127,863 207,959 287,1054 402,1102 551,1102 662,1102 754,1073 827,1016 900,959 945,880 964,779 L 779,765 C 770,825 746,873 708,908 670,943 616,961 546,961 451,961 382,929 339,866 296,803 275,696 275,546 Z"
   id="glyph20" />
   <glyph
   unicode="b"
   horiz-adv-x="932"
   d="M 1053,546 C 1053,169 920,-20 655,-20 573,-20 505,-5 451,25 396,54 352,102 318,168 L 316,168 C 316,147 315,116 312,74 309,31 307,7 306,0 L 132,0 C 136,36 138,110 138,223 L 138,1484 318,1484 318,1061 C 318,1018 317,967 314,908 L 318,908 C 351,977 396,1027 451,1057 506,1087 574,1102 655,1102 792,1102 892,1056 957,964 1021,872 1053,733 1053,546 Z M 864,540 C 864,691 844,800 804,865 764,930 699,963 609,963 508,963 434,928 388,859 341,790 318,680 318,529 318,387 341,282 386,215 431,147 505,113 607,113 698,113 763,147 804,214 844,281 864,389 864,540 Z"
   id="glyph21" />
   <glyph
   unicode="a"
   horiz-adv-x="1059"
   d="M 414,-20 C 305,-20 224,9 169,66 114,123 87,202 87,302 87,414 124,500 198,560 271,620 390,652 554,656 L 797,660 797,719 C 797,807 778,870 741,908 704,946 645,965 565,965 484,965 426,951 389,924 352,897 330,853 323,793 L 135,810 C 166,1005 310,1102 569,1102 705,1102 807,1071 876,1009 945,946 979,856 979,738 L 979,272 C 979,219 986,179 1000,152 1014,125 1041,111 1080,111 1097,111 1117,113 1139,118 L 1139,6 C 1094,-5 1047,-10 1000,-10 933,-10 885,8 855,43 824,78 807,132 803,207 L 797,207 C 751,124 698,66 637,32 576,-3 501,-20 414,-20 Z M 455,115 C 521,115 580,130 631,160 682,190 723,231 753,284 782,336 797,390 797,445 L 797,534 600,530 C 515,529 451,520 408,504 364,488 330,463 307,430 284,397 272,353 272,299 272,240 288,195 320,163 351,131 396,115 455,115 Z"
   id="glyph22" />
   <glyph
   unicode="V"
   horiz-adv-x="1377"
   d="M 782,0 L 584,0 9,1409 210,1409 600,417 684,168 768,417 1156,1409 1357,1409 782,0 Z"
   id="glyph23" />
   <glyph
   unicode="T"
   horiz-adv-x="1187"
   d="M 720,1253 L 720,0 530,0 530,1253 46,1253 46,1409 1204,1409 1204,1253 720,1253 Z"
   id="glyph24" />
   <glyph
   unicode="S"
   horiz-adv-x="1207"
   d="M 1272,389 C 1272,259 1221,158 1120,87 1018,16 875,-20 690,-20 347,-20 148,99 93,338 L 278,375 C 299,290 345,228 414,189 483,149 578,129 697,129 820,129 916,150 983,193 1050,235 1083,297 1083,379 1083,425 1073,462 1052,491 1031,520 1001,543 963,562 925,581 880,596 827,609 774,622 716,635 652,650 541,675 456,699 399,724 341,749 295,776 262,807 229,837 203,872 186,913 168,954 159,1000 159,1053 159,1174 205,1267 298,1332 390,1397 522,1430 694,1430 854,1430 976,1406 1061,1357 1146,1308 1205,1224 1239,1106 L 1051,1073 C 1030,1148 991,1202 933,1236 875,1269 795,1286 692,1286 579,1286 493,1267 434,1230 375,1193 345,1137 345,1063 345,1020 357,984 380,956 403,927 436,903 479,884 522,864 609,840 738,811 781,801 825,791 868,781 911,770 952,758 991,744 1030,729 1067,712 1102,693 1136,674 1166,650 1191,622 1216,594 1236,561 1251,523 1265,485 1272,440 1272,389 Z"
   id="glyph25" />
   <glyph
   unicode="Q"
   horiz-adv-x="1419"
   d="M 1495,711 C 1495,512 1445,349 1345,221 1245,93 1106,17 928,-6 955,-90 991,-151 1036,-188 1080,-225 1136,-244 1204,-244 1241,-244 1279,-240 1319,-231 L 1319,-365 C 1257,-380 1198,-387 1141,-387 1040,-387 958,-358 893,-302 828,-244 774,-149 733,-16 601,-9 487,24 392,85 296,145 223,229 173,337 122,444 97,569 97,711 97,936 159,1113 282,1240 405,1367 577,1430 797,1430 940,1430 1065,1402 1170,1345 1275,1288 1356,1205 1412,1096 1467,987 1495,859 1495,711 Z M 1300,711 C 1300,886 1256,1024 1169,1124 1081,1224 957,1274 797,1274 636,1274 511,1225 423,1126 335,1027 291,889 291,711 291,534 336,394 425,291 514,187 637,135 795,135 958,135 1083,185 1170,286 1257,386 1300,528 1300,711 Z"
   id="glyph26" />
   <glyph
   unicode="P"
   horiz-adv-x="1123"
   d="M 1258,985 C 1258,852 1215,746 1128,667 1041,588 922,549 773,549 L 359,549 359,0 168,0 168,1409 761,1409 C 919,1409 1041,1372 1128,1298 1215,1224 1258,1120 1258,985 Z M 1066,983 C 1066,1165 957,1256 738,1256 L 359,1256 359,700 746,700 C 959,700 1066,794 1066,983 Z"
   id="glyph27" />
   <glyph
   unicode="N"
   horiz-adv-x="1187"
   d="M 1082,0 L 328,1200 333,1103 338,936 338,0 168,0 168,1409 390,1409 1152,201 C 1144,332 1140,426 1140,485 L 1140,1409 1312,1409 1312,0 1082,0 Z"
   id="glyph28" />
   <glyph
   unicode="M"
   horiz-adv-x="1398"
   d="M 1366,0 L 1366,940 C 1366,1044 1369,1144 1375,1240 1342,1121 1313,1027 1287,960 L 923,0 789,0 420,960 364,1130 331,1240 334,1129 338,940 338,0 168,0 168,1409 419,1409 794,432 C 807,393 820,351 833,306 845,261 853,228 857,208 862,235 874,275 891,330 908,384 919,418 925,432 L 1293,1409 1538,1409 1538,0 1366,0 Z"
   id="glyph29" />
   <glyph
   unicode="L"
   horiz-adv-x="933"
   d="M 168,0 L 168,1409 359,1409 359,156 1071,156 1071,0 168,0 Z"
   id="glyph30" />
   <glyph
   unicode="H"
   horiz-adv-x="1187"
   d="M 1121,0 L 1121,653 359,653 359,0 168,0 168,1409 359,1409 359,813 1121,813 1121,1409 1312,1409 1312,0 1121,0 Z"
   id="glyph31" />
   <glyph
   unicode="F"
   horiz-adv-x="1038"
   d="M 359,1253 L 359,729 1145,729 1145,571 359,571 359,0 168,0 168,1409 1169,1409 1169,1253 359,1253 Z"
   id="glyph32" />
   <glyph
   unicode="D"
   horiz-adv-x="1250"
   d="M 1381,719 C 1381,574 1353,447 1296,338 1239,229 1159,145 1055,87 951,29 831,0 695,0 L 168,0 168,1409 634,1409 C 873,1409 1057,1349 1187,1230 1316,1110 1381,940 1381,719 Z M 1189,719 C 1189,894 1141,1027 1046,1119 950,1210 811,1256 630,1256 L 359,1256 359,153 673,153 C 776,153 867,176 946,221 1024,266 1084,332 1126,417 1168,502 1189,603 1189,719 Z"
   id="glyph33" />
   <glyph
   unicode="C"
   horiz-adv-x="1334"
   d="M 792,1274 C 636,1274 515,1224 428,1124 341,1023 298,886 298,711 298,538 343,400 434,295 524,190 646,137 800,137 997,137 1146,235 1245,430 L 1401,352 C 1343,231 1262,138 1157,75 1052,12 930,-20 791,-20 649,-20 526,10 423,69 319,128 240,212 186,322 131,431 104,561 104,711 104,936 165,1112 286,1239 407,1366 575,1430 790,1430 940,1430 1065,1401 1166,1342 1267,1283 1341,1196 1388,1081 L 1207,1021 C 1174,1103 1122,1166 1050,1209 977,1252 891,1274 792,1274 Z"
   id="glyph34" />
   <glyph
   unicode="B"
   horiz-adv-x="1123"
   d="M 1258,397 C 1258,272 1212,174 1121,105 1030,35 903,0 740,0 L 168,0 168,1409 680,1409 C 1011,1409 1176,1295 1176,1067 1176,984 1153,914 1106,857 1059,800 993,762 908,743 1020,730 1106,692 1167,631 1228,569 1258,491 1258,397 Z M 984,1044 C 984,1120 958,1174 906,1207 854,1240 779,1256 680,1256 L 359,1256 359,810 680,810 C 782,810 858,829 909,868 959,906 984,965 984,1044 Z M 1065,412 C 1065,578 948,661 715,661 L 359,661 359,153 730,153 C 847,153 932,175 985,218 1038,261 1065,326 1065,412 Z"
   id="glyph35" />
   <glyph
   unicode="A"
   horiz-adv-x="1377"
   d="M 1167,0 L 1006,412 364,412 202,0 4,0 579,1409 796,1409 1362,0 1167,0 Z M 685,1265 L 676,1237 C 659,1182 635,1111 602,1024 L 422,561 949,561 768,1026 C 749,1072 731,1124 712,1182 L 685,1265 Z"
   id="glyph36" />
   <glyph
   unicode="4"
   horiz-adv-x="1060"
   d="M 881,319 L 881,0 711,0 711,319 47,319 47,459 692,1409 881,1409 881,461 1079,461 1079,319 881,319 Z M 711,1206 C 710,1202 700,1184 683,1153 666,1122 653,1100 644,1087 L 283,555 229,481 213,461 711,461 711,1206 Z"
   id="glyph37" />
   <glyph
   unicode="2"
   horiz-adv-x="974"
   d="M 103,0 L 103,127 C 137,205 179,274 228,334 277,393 328,447 382,496 436,544 490,589 543,630 596,671 643,713 686,754 729,795 763,839 790,884 816,929 829,981 829,1038 829,1115 806,1175 761,1218 716,1261 653,1282 572,1282 495,1282 432,1261 383,1220 333,1178 304,1119 295,1044 L 111,1061 C 124,1174 172,1263 255,1330 337,1397 443,1430 572,1430 714,1430 823,1397 900,1330 976,1263 1014,1167 1014,1044 1014,989 1002,935 977,881 952,827 914,773 865,719 816,665 721,581 582,468 505,405 444,349 399,299 354,248 321,200 301,153 L 1036,153 1036,0 103,0 Z"
   id="glyph38" />
   <glyph
   unicode="1"
   horiz-adv-x="911"
   d="M 156,0 L 156,153 515,153 515,1237 197,1010 197,1180 530,1409 696,1409 696,153 1039,153 1039,0 156,0 Z"
   id="glyph39" />
   <glyph
   unicode="0"
   horiz-adv-x="1017"
   d="M 1059,705 C 1059,470 1018,290 935,166 852,42 729,-20 567,-20 405,-20 283,42 202,165 121,288 80,468 80,705 80,947 120,1128 199,1249 278,1370 402,1430 573,1430 739,1430 862,1369 941,1247 1020,1125 1059,944 1059,705 Z M 876,705 C 876,908 853,1056 806,1147 759,1238 681,1284 573,1284 462,1284 383,1239 335,1149 286,1059 262,911 262,705 262,505 287,359 336,266 385,173 462,127 569,127 675,127 753,174 802,269 851,364 876,509 876,705 Z"
   id="glyph40" />
   <glyph
   unicode="/"
   horiz-adv-x="573"
   d="M 0,-20 L 411,1484 569,1484 162,-20 0,-20 Z"
   id="glyph41" />
   <glyph
   unicode="-"
   horiz-adv-x="509"
   d="M 91,464 L 91,624 591,624 591,464 91,464 Z"
   id="glyph42" />
   <glyph
   unicode="%"
   horiz-adv-x="1694"
   d="M 1748,434 C 1748,291 1721,181 1667,104 1613,27 1533,-12 1428,-12 1324,-12 1246,26 1193,101 1140,176 1113,287 1113,434 1113,586 1139,699 1190,774 1241,848 1321,885 1432,885 1541,885 1621,847 1672,771 1723,694 1748,582 1748,434 Z M 527,0 L 372,0 1294,1409 1451,1409 527,0 Z M 394,1421 C 500,1421 579,1384 630,1309 681,1234 707,1123 707,975 707,830 681,719 628,641 575,563 495,524 390,524 285,524 206,563 153,640 100,717 73,829 73,975 73,1124 99,1235 150,1310 201,1384 283,1421 394,1421 Z M 1600,434 C 1600,553 1587,640 1562,694 1536,747 1493,774 1432,774 1371,774 1328,748 1301,695 1274,642 1260,555 1260,434 1260,320 1273,236 1300,181 1326,126 1369,98 1430,98 1489,98 1532,126 1559,182 1586,237 1600,321 1600,434 Z M 560,975 C 560,1092 547,1178 522,1232 497,1286 454,1313 394,1313 331,1313 287,1287 260,1234 233,1181 220,1094 220,975 220,860 233,775 260,720 287,665 331,637 392,637 450,637 493,665 520,721 547,777 560,862 560,975 Z"
   id="glyph43" />
   <glyph
   unicode=" "
   horiz-adv-x="572"
   id="glyph44" />
  </font>
 </defs>
 <defs
   id="defs71">
  <font
   id="EmbeddedFont_2"
   horiz-adv-x="2048">
   <font-face
   font-family="Liberation Sans embedded"
   units-per-em="2048"
   font-weight="normal"
   font-style="italic"
   ascent="1863"
   descent="445"
   id="font-face44" />
   <missing-glyph
   horiz-adv-x="2048"
   d="M 0,0 L 2047,0 2047,2047 0,2047 0,0 Z"
   id="missing-glyph44" />
   <glyph
   unicode="x"
   horiz-adv-x="1187"
   d="M 706,0 L 497,444 117,0 -82,0 410,556 146,1082 335,1082 528,661 878,1082 1084,1082 615,558 896,0 706,0 Z"
   id="glyph45" />
   <glyph
   unicode="t"
   horiz-adv-x="572"
   d="M 275,-20 C 218,-20 174,-3 142,31 109,65 93,110 93,166 93,203 98,246 108,296 L 234,951 109,951 135,1082 262,1082 367,1324 487,1324 440,1082 640,1082 614,951 414,951 289,306 C 281,266 277,234 277,211 277,152 307,123 367,123 395,123 428,128 467,137 L 448,4 C 382,-12 324,-20 275,-20 Z"
   id="glyph46" />
   <glyph
   unicode="s"
   horiz-adv-x="996"
   d="M 907,317 C 907,209 866,126 783,68 700,9 581,-20 425,-20 309,-20 217,0 149,39 80,78 32,139 5,223 L 152,279 C 174,220 208,178 255,151 301,124 363,111 441,111 536,111 609,127 658,160 707,192 732,239 732,301 732,342 715,377 681,405 647,432 575,463 465,497 380,525 316,552 273,579 230,606 198,637 175,673 152,708 141,750 141,797 141,894 180,968 257,1021 334,1073 443,1099 584,1099 820,1099 953,1014 982,844 L 819,819 C 804,872 777,910 736,933 695,956 641,968 572,968 489,968 426,955 382,929 337,902 315,865 315,817 315,789 322,765 336,746 350,727 370,710 397,695 423,680 484,657 579,627 664,600 728,573 771,546 814,519 847,486 871,449 895,412 907,368 907,317 Z"
   id="glyph47" />
   <glyph
   unicode="r"
   horiz-adv-x="742"
   d="M 718,938 C 689,947 659,951 628,951 558,951 495,914 439,841 382,768 344,675 324,564 L 214,0 34,0 196,830 221,968 239,1082 409,1082 374,861 378,861 C 422,950 465,1012 508,1048 551,1084 600,1102 656,1102 687,1102 718,1097 751,1088 L 718,938 Z"
   id="glyph48" />
   <glyph
   unicode="q"
   horiz-adv-x="1080"
   d="M 401,-21 C 296,-21 215,11 157,74 98,137 69,223 69,333 69,468 90,600 131,727 172,854 229,948 304,1009 378,1070 473,1101 588,1101 670,1101 737,1084 789,1049 840,1014 877,966 898,903 L 903,903 C 910,939 919,978 930,1021 941,1064 948,1089 952,1096 L 1125,1096 C 1110,1044 1088,946 1060,801 L 822,-425 642,-425 727,14 759,160 755,160 C 706,97 655,51 601,22 547,-7 480,-21 401,-21 Z M 453,118 C 519,118 576,132 623,159 670,186 709,226 742,281 775,335 800,403 819,485 838,566 847,639 847,704 847,787 826,852 784,899 741,945 682,968 607,968 526,968 461,944 414,896 367,847 329,768 300,659 271,549 257,451 257,365 257,283 273,221 304,180 335,139 385,118 453,118 Z"
   id="glyph49" />
   <glyph
   unicode="p"
   horiz-adv-x="1145"
   d="M 554,-20 C 472,-20 405,-3 354,32 302,67 265,115 244,178 L 239,178 C 239,171 236,149 231,113 225,77 191,-102 128,-425 L -51,-425 198,861 C 213,935 225,1009 233,1082 L 400,1082 C 400,1064 398,1037 394,1000 389,963 386,936 383,921 L 387,921 C 436,984 487,1030 541,1059 595,1088 662,1102 741,1102 846,1102 927,1071 986,1008 1044,945 1073,858 1073,748 1073,613 1053,482 1012,355 971,228 913,133 839,72 764,11 669,-20 554,-20 Z M 689,963 C 623,963 567,950 520,923 473,896 433,855 400,801 367,746 342,678 323,597 304,515 295,442 295,377 295,294 316,229 359,183 401,136 460,113 535,113 618,113 683,138 731,189 779,239 817,319 844,429 871,538 885,634 885,716 885,798 869,860 838,901 807,942 757,963 689,963 Z"
   id="glyph50" />
   <glyph
   unicode="o"
   horiz-adv-x="1017"
   d="M 1074,683 C 1074,596 1061,506 1034,413 1007,319 969,240 920,175 870,110 809,61 737,29 665,-4 583,-20 491,-20 360,-20 257,19 181,98 105,177 67,284 67,419 70,555 94,676 141,781 188,886 252,966 335,1020 418,1074 520,1101 642,1101 782,1101 889,1065 963,992 1037,919 1074,816 1074,683 Z M 888,683 C 888,874 805,969 640,969 550,969 478,946 424,900 369,853 327,783 297,689 267,595 252,504 252,416 252,317 273,242 316,191 359,139 421,113 502,113 571,113 626,125 668,148 709,171 746,207 777,256 808,305 834,367 854,443 873,519 885,599 888,683 Z"
   id="glyph51" />
   <glyph
   unicode="n"
   horiz-adv-x="1038"
   d="M 717,0 L 843,645 C 855,704 861,754 861,795 861,906 801,962 682,962 598,962 524,930 460,866 396,802 353,715 332,606 L 214,0 34,0 200,851 C 213,914 226,991 239,1082 L 409,1082 C 409,1075 406,1049 399,1005 392,960 386,924 381,897 L 384,897 C 439,974 495,1027 551,1057 606,1086 672,1101 749,1101 848,1101 922,1077 972,1028 1021,979 1046,909 1046,817 1046,774 1039,720 1025,653 L 898,0 717,0 Z"
   id="glyph52" />
   <glyph
   unicode="m"
   horiz-adv-x="1610"
   d="M 660,0 L 784,634 C 801,717 809,775 809,808 809,858 796,896 771,923 746,949 704,962 647,962 570,962 502,929 445,863 387,797 349,711 331,604 L 213,0 34,0 200,851 C 213,914 226,991 239,1082 L 409,1082 C 409,1075 406,1049 399,1005 392,960 386,924 381,897 L 384,897 C 433,973 482,1026 531,1056 580,1086 638,1101 706,1101 787,1101 851,1081 898,1042 945,1002 974,944 983,869 1038,956 1093,1016 1147,1050 1200,1084 1262,1101 1331,1101 1421,1101 1490,1077 1539,1028 1587,979 1611,909 1611,817 1611,774 1604,720 1590,653 L 1463,0 1285,0 1409,634 C 1426,717 1434,775 1434,808 1434,858 1421,896 1396,923 1371,949 1329,962 1272,962 1195,962 1127,930 1070,865 1013,800 975,714 956,607 L 838,0 660,0 Z"
   id="glyph53" />
   <glyph
   unicode="l"
   horiz-adv-x="488"
   d="M 33,0 L 321,1484 501,1484 212,0 33,0 Z"
   id="glyph54" />
   <glyph
   unicode="i"
   horiz-adv-x="488"
   d="M 287,1312 L 321,1484 501,1484 467,1312 287,1312 Z M 33,0 L 243,1082 423,1082 212,0 33,0 Z"
   id="glyph55" />
   <glyph
   unicode="e"
   horiz-adv-x="1017"
   d="M 256,503 C 252,480 249,442 247,390 247,301 269,233 314,186 358,139 425,115 514,115 579,115 637,131 690,163 743,195 784,239 813,294 L 951,231 C 902,144 841,80 766,40 691,0 600,-20 493,-20 359,-20 255,17 181,92 106,166 69,270 69,405 69,539 93,659 140,766 187,872 254,955 340,1014 426,1073 523,1102 630,1102 767,1102 873,1068 949,999 1025,930 1063,833 1063,708 1063,638 1055,570 1039,503 L 256,503 Z M 880,641 L 884,713 C 884,796 863,859 820,903 777,947 715,969 634,969 545,969 470,941 409,884 348,827 305,746 280,641 L 880,641 Z"
   id="glyph56" />
   <glyph
   unicode="d"
   horiz-adv-x="1144"
   d="M 401,-21 C 296,-21 215,11 157,74 98,137 69,223 69,333 69,468 90,600 131,727 172,854 229,948 304,1009 378,1070 473,1101 588,1101 670,1101 737,1084 789,1049 840,1014 877,966 898,903 L 903,903 931,1065 1013,1484 1193,1484 948,223 C 929,129 916,55 910,0 L 738,0 C 738,34 745,87 759,160 L 754,160 C 705,97 654,51 600,22 546,-7 480,-21 401,-21 Z M 453,118 C 519,118 576,132 623,159 670,186 709,226 742,281 775,335 800,403 819,485 838,566 847,639 847,704 847,787 826,852 784,899 741,945 682,968 607,968 526,968 461,944 414,896 367,847 329,768 300,659 271,549 257,451 257,365 257,283 273,221 304,180 335,139 385,118 453,118 Z"
   id="glyph57" />
   <glyph
   unicode="c"
   horiz-adv-x="953"
   d="M 469,122 C 606,122 702,199 758,352 L 914,303 C 833,88 684,-20 465,-20 337,-20 239,16 170,89 101,162 67,264 67,395 67,528 91,652 140,767 188,882 252,966 332,1021 411,1075 509,1102 625,1102 738,1102 827,1074 893,1017 958,960 994,883 1001,784 L 824,759 C 820,824 800,874 764,909 728,944 680,961 619,961 535,961 467,939 415,894 363,849 323,777 294,679 265,581 251,484 251,389 251,211 324,122 469,122 Z"
   id="glyph58" />
   <glyph
   unicode="b"
   horiz-adv-x="1060"
   d="M 744,1102 C 849,1102 930,1071 989,1008 1047,945 1076,858 1076,748 1076,613 1056,482 1015,355 974,228 916,133 842,72 767,11 672,-20 557,-20 475,-20 408,-3 357,32 306,67 269,115 248,178 L 245,178 C 240,153 232,117 221,71 210,24 203,1 202,1 L 29,1 C 32,11 39,38 49,83 58,128 68,175 78,224 L 323,1484 503,1484 420,1061 C 415,1030 403,984 386,921 L 390,921 C 439,984 490,1030 544,1059 598,1088 665,1102 744,1102 Z M 692,963 C 626,963 570,950 523,923 476,896 436,855 403,801 370,746 345,678 326,597 307,515 298,442 298,377 298,294 319,229 362,183 404,136 463,113 538,113 621,113 686,138 734,189 782,239 820,319 847,429 874,538 888,634 888,716 888,798 872,860 841,901 810,942 760,963 692,963 Z"
   id="glyph59" />
   <glyph
   unicode="a"
   horiz-adv-x="1039"
   d="M 927,-10 C 865,-10 820,3 792,29 763,54 749,92 749,143 L 754,207 748,207 C 693,123 635,64 576,31 517,-3 445,-20 361,-20 268,-20 192,8 134,64 75,120 46,191 46,278 46,401 90,495 179,558 267,621 408,654 601,657 L 833,660 C 846,725 852,768 852,787 852,848 834,893 799,922 764,951 715,965 652,965 573,965 513,951 472,923 431,894 402,851 384,793 L 206,822 C 236,920 288,991 363,1036 437,1080 537,1102 662,1102 776,1102 866,1075 933,1022 999,969 1032,897 1032,807 1032,764 1026,712 1013,650 L 939,272 C 932,240 928,211 928,184 928,135 955,111 1009,111 1027,111 1047,113 1069,118 L 1055,6 C 1011,-5 968,-10 927,-10 Z M 809,536 L 610,532 C 531,530 468,523 423,511 378,498 343,483 318,464 293,445 273,421 259,392 244,363 237,327 237,286 237,236 253,195 286,164 318,133 360,117 411,117 476,117 534,131 586,159 638,186 681,222 715,267 749,312 771,360 782,411 L 809,536 Z"
   id="glyph60" />
   <glyph
   unicode="_"
   horiz-adv-x="1207"
   d="M -160,-250 L -160,-174 1018,-174 1018,-250 -160,-250 Z"
   id="glyph61" />
   <glyph
   unicode="O"
   horiz-adv-x="1440"
   d="M 938,1430 C 1123,1430 1269,1378 1376,1273 1483,1168 1536,1028 1536,851 1533,672 1495,518 1424,388 1353,257 1255,157 1131,86 1007,15 866,-20 709,-20 520,-20 373,33 268,138 163,243 111,388 111,573 111,732 146,879 217,1013 287,1146 385,1249 511,1322 637,1394 779,1430 938,1430 Z M 929,1276 C 796,1276 683,1246 590,1187 497,1128 425,1039 376,921 327,803 302,684 302,563 302,424 338,318 409,245 480,172 583,135 718,135 849,135 961,164 1054,222 1146,279 1218,366 1269,481 1320,596 1345,718 1345,847 1345,985 1309,1091 1237,1165 1164,1239 1062,1276 929,1276 Z"
   id="glyph62" />
   <glyph
   unicode="&gt;"
   horiz-adv-x="1017"
   d="M 131,154 L 131,307 989,674 131,1040 131,1194 1126,776 1126,571 131,154 Z"
   id="glyph63" />
   <glyph
   unicode="9"
   horiz-adv-x="1038"
   d="M 898,684 C 809,549 696,481 559,481 480,481 411,498 351,533 291,567 245,615 212,676 179,737 163,806 163,881 163,982 185,1075 229,1160 273,1244 335,1310 415,1358 494,1406 583,1430 682,1430 813,1430 915,1388 988,1303 1061,1218 1097,1103 1097,957 1097,854 1085,746 1060,634 1035,521 1001,423 959,340 917,257 869,188 816,135 763,81 705,42 643,17 581,-8 518,-20 453,-20 248,-20 120,72 70,257 L 228,302 C 244,245 272,202 311,171 350,140 400,125 461,125 566,125 656,173 731,270 805,366 861,504 898,684 Z M 925,1017 C 925,1098 902,1162 856,1211 810,1260 751,1284 678,1284 579,1284 499,1248 438,1176 377,1104 346,1005 346,879 346,798 367,735 409,690 451,645 508,623 580,623 643,623 702,640 757,674 812,708 853,753 882,810 911,867 925,936 925,1017 Z"
   id="glyph64" />
   <glyph
   unicode="6"
   horiz-adv-x="1038"
   d="M 534,-20 C 405,-20 303,25 228,114 153,203 115,320 115,464 115,625 143,784 199,941 254,1098 330,1218 427,1303 524,1388 635,1430 761,1430 861,1430 943,1406 1008,1359 1072,1311 1116,1242 1139,1151 L 973,1115 C 956,1169 929,1211 891,1240 853,1269 807,1284 753,1284 644,1284 551,1235 474,1138 397,1041 342,903 307,726 347,786 398,832 459,864 520,895 588,911 663,911 778,911 870,876 941,806 1012,736 1047,645 1047,533 1047,432 1025,338 981,253 936,167 875,100 797,52 718,4 631,-20 534,-20 Z M 288,421 C 288,334 311,263 356,208 401,153 462,125 538,125 631,125 708,163 769,238 830,313 861,407 861,522 861,599 841,660 802,705 762,750 705,772 630,772 568,772 511,758 459,730 406,701 365,661 334,609 303,557 288,494 288,421 Z"
   id="glyph65" />
   <glyph
   unicode="4"
   horiz-adv-x="1081"
   d="M 846,319 L 784,0 604,0 666,319 13,319 40,459 859,1409 1058,1409 874,461 1062,461 1034,319 846,319 Z M 826,1157 L 227,461 694,461 826,1157 Z"
   id="glyph66" />
   <glyph
   unicode="2"
   horiz-adv-x="1144"
   d="M -12,0 L 12,127 C 49,189 90,244 135,293 180,342 228,386 277,426 326,465 377,501 428,534 479,567 528,598 576,629 623,659 668,689 710,719 751,749 788,781 819,815 850,849 875,886 893,927 911,967 920,1012 920,1063 920,1128 899,1181 858,1222 816,1262 760,1282 689,1282 616,1282 553,1262 499,1223 445,1183 406,1123 381,1044 L 211,1081 C 247,1194 306,1281 389,1341 472,1400 575,1430 700,1430 821,1430 920,1397 996,1332 1071,1267 1109,1182 1109,1078 1109,1007 1092,940 1058,875 1024,810 973,748 905,689 836,630 733,557 596,470 498,408 419,352 359,301 298,250 253,201 222,153 L 949,153 920,0 -12,0 Z"
   id="glyph67" />
   <glyph
   unicode="0"
   horiz-adv-x="1059"
   d="M 732,1430 C 854,1430 950,1389 1019,1307 1088,1225 1122,1111 1122,964 1122,793 1096,628 1044,469 992,309 918,188 823,105 728,22 612,-20 476,-20 355,-20 261,23 192,109 123,195 89,314 89,465 89,585 104,707 134,831 163,955 205,1062 258,1153 311,1244 376,1313 455,1360 533,1407 625,1430 732,1430 Z M 491,127 C 592,127 674,162 738,233 801,304 852,414 890,563 928,712 947,848 947,973 947,1076 927,1154 888,1206 848,1258 792,1284 720,1284 619,1284 537,1249 474,1178 410,1107 359,998 321,849 283,700 264,563 264,438 264,335 284,257 324,205 363,153 419,127 491,127 Z"
   id="glyph68" />
   <glyph
   unicode="-"
   horiz-adv-x="572"
   d="M 105,464 L 136,624 636,624 605,464 105,464 Z"
   id="glyph69" />
   <glyph
   unicode=","
   horiz-adv-x="319"
   d="M 160,-262 L 37,-262 C 117,-171 165,-83 182,0 L 94,0 136,219 331,219 299,51 C 287,-12 270,-69 248,-119 226,-169 197,-217 160,-262 Z"
   id="glyph70" />
   <glyph
   unicode=" "
   horiz-adv-x="572"
   id="glyph71" />
  </font>
 </defs>
 <defs
   id="defs106">
  <font
   id="EmbeddedFont_3"
   horiz-adv-x="2048">
   <font-face
   font-family="Liberation Sans embedded"
   units-per-em="2048"
   font-weight="bold"
   font-style="normal"
   ascent="1863"
   descent="445"
   id="font-face71" />
   <missing-glyph
   horiz-adv-x="2048"
   d="M 0,0 L 2047,0 2047,2047 0,2047 0,0 Z"
   id="missing-glyph71" />
   <glyph
   unicode="u"
   horiz-adv-x="996"
   d="M 408,1082 L 408,475 C 408,285 472,190 600,190 668,190 723,219 765,278 806,336 827,411 827,502 L 827,1082 1108,1082 1108,242 C 1108,150 1111,69 1116,0 L 848,0 C 840,96 836,168 836,215 L 831,215 C 794,133 746,73 689,36 631,-1 562,-20 483,-20 368,-20 280,15 219,86 158,156 127,259 127,395 L 127,1082 408,1082 Z"
   id="glyph72" />
   <glyph
   unicode="t"
   horiz-adv-x="657"
   d="M 420,-18 C 337,-18 274,5 229,50 184,95 162,163 162,254 L 162,892 25,892 25,1082 176,1082 264,1336 440,1336 440,1082 645,1082 645,892 440,892 440,330 C 440,277 450,239 470,214 490,189 521,176 563,176 585,176 616,181 657,190 L 657,16 C 588,-7 509,-18 420,-18 Z"
   id="glyph73" />
   <glyph
   unicode="s"
   horiz-adv-x="995"
   d="M 1055,316 C 1055,211 1012,129 927,70 841,10 722,-20 571,-20 422,-20 309,4 230,51 151,98 98,171 72,270 L 319,307 C 333,256 357,219 392,198 426,177 486,166 571,166 650,166 707,176 743,196 779,216 797,247 797,290 797,325 783,352 754,373 725,393 675,410 606,424 447,455 340,485 285,512 230,539 188,574 159,617 130,660 115,712 115,775 115,878 155,959 235,1017 314,1074 427,1103 573,1103 702,1103 805,1078 884,1028 962,978 1011,906 1030,811 L 781,785 C 773,829 753,862 722,884 691,905 641,916 573,916 506,916 456,908 423,891 390,874 373,845 373,805 373,774 386,749 412,731 437,712 480,697 541,685 626,668 701,650 767,632 832,613 885,591 925,566 964,541 996,508 1020,469 1043,429 1055,378 1055,316 Z"
   id="glyph74" />
   <glyph
   unicode="r"
   horiz-adv-x="657"
   d="M 143,0 L 143,828 C 143,887 142,937 141,977 139,1016 137,1051 135,1082 L 403,1082 C 405,1070 408,1034 411,973 414,912 416,871 416,851 L 420,851 C 447,927 472,981 493,1012 514,1043 540,1066 569,1081 598,1096 635,1103 679,1103 715,1103 744,1098 766,1088 L 766,853 C 721,863 681,868 646,868 576,868 522,840 483,783 444,726 424,642 424,531 L 424,0 143,0 Z"
   id="glyph75" />
   <glyph
   unicode="q"
   horiz-adv-x="1059"
   d="M 84,540 C 84,719 121,857 194,956 267,1054 369,1103 502,1103 659,1103 768,1038 829,908 829,939 831,973 835,1011 838,1048 841,1072 844,1082 L 1114,1082 C 1110,1010 1108,927 1108,833 L 1108,-425 829,-425 829,25 834,180 832,180 C 770,47 652,-20 479,-20 353,-20 256,29 187,128 118,226 84,363 84,540 Z M 831,546 C 831,661 812,751 773,815 734,878 677,910 602,910 452,910 377,787 377,540 377,295 451,172 600,172 673,172 730,205 771,270 811,335 831,427 831,546 Z"
   id="glyph76" />
   <glyph
   unicode="p"
   horiz-adv-x="1059"
   d="M 1167,546 C 1167,365 1131,226 1059,128 986,29 884,-20 752,-20 676,-20 610,-3 554,30 497,63 454,110 424,172 L 418,172 C 422,152 424,91 424,-10 L 424,-425 143,-425 143,833 C 143,935 140,1018 135,1082 L 408,1082 C 411,1070 414,1046 417,1011 419,976 420,941 420,906 L 424,906 C 487,1039 603,1105 770,1105 896,1105 994,1057 1063,960 1132,863 1167,725 1167,546 Z M 874,546 C 874,789 800,910 651,910 576,910 519,877 480,812 440,747 420,655 420,538 420,421 440,331 480,268 519,204 576,172 649,172 799,172 874,297 874,546 Z"
   id="glyph77" />
   <glyph
   unicode="o"
   horiz-adv-x="1122"
   d="M 1171,542 C 1171,367 1122,229 1025,130 928,30 793,-20 621,-20 452,-20 320,30 224,130 128,230 80,367 80,542 80,716 128,853 224,953 320,1052 454,1102 627,1102 804,1102 939,1054 1032,958 1125,861 1171,723 1171,542 Z M 877,542 C 877,671 856,764 814,822 772,880 711,909 631,909 460,909 375,787 375,542 375,421 396,330 438,267 479,204 539,172 618,172 791,172 877,295 877,542 Z"
   id="glyph78" />
   <glyph
   unicode="n"
   horiz-adv-x="1017"
   d="M 844,0 L 844,607 C 844,797 780,892 651,892 583,892 528,863 487,805 445,746 424,671 424,580 L 424,0 143,0 143,840 C 143,898 142,946 141,983 139,1020 137,1053 135,1082 L 403,1082 C 405,1069 408,1036 411,981 414,926 416,888 416,867 L 420,867 C 458,950 506,1010 563,1047 620,1084 689,1103 768,1103 883,1103 971,1068 1032,997 1093,926 1124,823 1124,687 L 1124,0 844,0 Z"
   id="glyph79" />
   <glyph
   unicode="m"
   horiz-adv-x="1589"
   d="M 780,0 L 780,607 C 780,797 725,892 616,892 559,892 513,863 478,805 442,747 424,672 424,580 L 424,0 143,0 143,840 C 143,898 142,946 141,983 139,1020 137,1053 135,1082 L 403,1082 C 405,1069 408,1036 411,981 414,926 416,888 416,867 L 420,867 C 455,950 498,1010 550,1047 601,1084 663,1103 735,1103 900,1103 1001,1024 1036,867 L 1042,867 C 1079,951 1123,1011 1174,1048 1225,1085 1291,1103 1370,1103 1475,1103 1556,1067 1611,996 1666,924 1694,821 1694,687 L 1694,0 1415,0 1415,607 C 1415,797 1360,892 1251,892 1196,892 1152,866 1117,813 1082,760 1062,686 1059,593 L 1059,0 780,0 Z"
   id="glyph80" />
   <glyph
   unicode="l"
   horiz-adv-x="319"
   d="M 143,0 L 143,1484 424,1484 424,0 143,0 Z"
   id="glyph81" />
   <glyph
   unicode="i"
   horiz-adv-x="319"
   d="M 143,1277 L 143,1484 424,1484 424,1277 143,1277 Z M 143,0 L 143,1082 424,1082 424,0 143,0 Z"
   id="glyph82" />
   <glyph
   unicode="h"
   horiz-adv-x="1017"
   d="M 420,866 C 458,949 506,1009 563,1046 620,1083 689,1102 768,1102 883,1102 971,1067 1032,996 1093,925 1124,822 1124,686 L 1124,0 844,0 844,606 C 844,796 780,891 651,891 583,891 528,862 487,804 445,745 424,670 424,579 L 424,0 143,0 143,1484 424,1484 424,1079 C 424,1006 421,935 416,866 L 420,866 Z"
   id="glyph83" />
   <glyph
   unicode="g"
   horiz-adv-x="1059"
   d="M 596,-434 C 464,-434 358,-409 278,-359 197,-308 148,-236 129,-143 L 410,-110 C 420,-153 442,-187 475,-212 508,-237 551,-249 604,-249 682,-249 739,-225 775,-177 811,-129 829,-58 829,37 L 829,94 831,201 829,201 C 767,68 651,2 481,2 355,2 257,49 188,144 119,239 84,374 84,550 84,727 120,863 191,959 262,1055 366,1103 502,1103 659,1103 768,1038 829,908 L 834,908 C 834,931 836,963 839,1003 842,1043 845,1069 848,1082 L 1114,1082 C 1110,1010 1108,927 1108,832 L 1108,33 C 1108,-121 1064,-237 977,-316 890,-395 763,-434 596,-434 Z M 831,556 C 831,667 811,754 772,817 732,879 675,910 602,910 452,910 377,790 377,550 377,315 451,197 600,197 675,197 732,228 772,291 811,353 831,441 831,556 Z"
   id="glyph84" />
   <glyph
   unicode="f"
   horiz-adv-x="679"
   d="M 473,892 L 473,0 193,0 193,892 35,892 35,1082 193,1082 193,1195 C 193,1293 219,1366 271,1413 323,1460 402,1484 508,1484 561,1484 620,1479 686,1468 L 686,1287 C 659,1293 631,1296 604,1296 556,1296 522,1287 503,1268 483,1249 473,1215 473,1167 L 473,1082 686,1082 686,892 473,892 Z"
   id="glyph85" />
   <glyph
   unicode="e"
   horiz-adv-x="1017"
   d="M 586,-20 C 423,-20 298,28 211,125 124,221 80,361 80,546 80,725 124,862 213,958 302,1054 427,1102 590,1102 745,1102 864,1051 946,948 1028,845 1069,694 1069,495 L 1069,487 375,487 C 375,382 395,302 434,249 473,195 528,168 600,168 699,168 762,211 788,297 L 1053,274 C 976,78 821,-20 586,-20 Z M 586,925 C 520,925 469,902 434,856 398,810 379,746 377,663 L 797,663 C 792,750 771,816 734,860 697,903 648,925 586,925 Z"
   id="glyph86" />
   <glyph
   unicode="d"
   horiz-adv-x="1059"
   d="M 844,0 C 841,10 838,35 835,76 831,116 829,149 829,176 L 825,176 C 764,45 649,-20 479,-20 353,-20 256,29 187,128 118,226 84,363 84,540 84,719 120,858 193,956 265,1053 367,1102 500,1102 577,1102 643,1086 699,1054 754,1022 797,974 827,911 L 829,911 827,1089 827,1484 1108,1484 1108,236 C 1108,169 1111,91 1116,0 L 844,0 Z M 831,547 C 831,664 812,754 773,817 734,880 676,911 600,911 525,911 469,881 432,820 395,759 377,665 377,540 377,295 451,172 598,172 672,172 729,205 770,270 811,335 831,427 831,547 Z"
   id="glyph87" />
   <glyph
   unicode="c"
   horiz-adv-x="1038"
   d="M 594,-20 C 430,-20 303,29 214,127 125,224 80,360 80,535 80,714 125,853 215,953 305,1052 433,1102 598,1102 725,1102 831,1070 914,1006 997,942 1050,854 1071,741 L 788,727 C 780,782 760,827 728,860 696,893 651,909 592,909 447,909 375,788 375,546 375,297 449,172 596,172 649,172 694,189 730,223 766,256 788,306 797,373 L 1079,360 C 1069,286 1043,220 1000,162 957,104 900,59 830,28 760,-4 681,-20 594,-20 Z"
   id="glyph88" />
   <glyph
   unicode="a"
   horiz-adv-x="1123"
   d="M 393,-20 C 288,-20 207,9 148,66 89,123 60,203 60,306 60,418 97,503 170,562 243,621 348,651 487,652 L 720,656 720,711 C 720,782 708,834 683,869 658,903 618,920 562,920 510,920 472,908 448,885 423,861 408,822 402,767 L 109,781 C 127,886 175,966 254,1021 332,1075 439,1102 574,1102 711,1102 816,1068 890,1001 964,934 1001,838 1001,714 L 1001,320 C 1001,259 1008,218 1022,195 1035,172 1058,160 1090,160 1111,160 1132,162 1152,166 L 1152,14 C 1135,10 1120,6 1107,3 1094,0 1080,-3 1067,-5 1054,-7 1040,-9 1025,-10 1010,-11 992,-12 972,-12 901,-12 849,5 816,40 782,75 762,126 755,193 L 749,193 C 670,51 552,-20 393,-20 Z M 720,501 L 576,499 C 511,496 464,489 437,478 410,466 389,448 375,424 360,400 353,368 353,328 353,277 365,239 389,214 412,189 444,176 483,176 527,176 567,188 604,212 640,236 668,269 689,312 710,354 720,399 720,446 L 720,501 Z"
   id="glyph89" />
   <glyph
   unicode="X"
   horiz-adv-x="1356"
   d="M 1038,0 L 684,561 330,0 18,0 506,741 59,1409 371,1409 684,911 997,1409 1307,1409 879,741 1348,0 1038,0 Z"
   id="glyph90" />
   <glyph
   unicode="V"
   horiz-adv-x="1377"
   d="M 834,0 L 535,0 14,1409 322,1409 612,504 C 630,445 655,357 686,238 L 707,324 758,504 1047,1409 1352,1409 834,0 Z"
   id="glyph91" />
   <glyph
   unicode="T"
   horiz-adv-x="1229"
   d="M 773,1181 L 773,0 478,0 478,1181 23,1181 23,1409 1229,1409 1229,1181 773,1181 Z"
   id="glyph92" />
   <glyph
   unicode="S"
   horiz-adv-x="1250"
   d="M 1286,406 C 1286,268 1235,163 1133,90 1030,17 880,-20 682,-20 501,-20 360,12 257,76 154,140 88,237 59,367 L 344,414 C 363,339 401,285 457,252 513,218 591,201 690,201 896,201 999,264 999,389 999,429 987,462 964,488 940,514 907,536 864,553 821,570 738,591 616,616 511,641 437,661 396,676 355,691 317,708 284,729 251,749 222,773 199,802 176,831 158,864 145,903 132,942 125,986 125,1036 125,1163 173,1261 269,1329 364,1396 503,1430 686,1430 861,1430 992,1403 1080,1348 1167,1293 1224,1203 1249,1077 L 963,1038 C 948,1099 919,1144 874,1175 829,1206 764,1221 680,1221 501,1221 412,1165 412,1053 412,1016 422,986 441,963 460,940 488,920 525,904 562,887 638,867 752,842 887,813 984,787 1043,763 1101,738 1147,710 1181,678 1215,645 1241,607 1259,562 1277,517 1286,465 1286,406 Z"
   id="glyph93" />
   <glyph
   unicode="R"
   horiz-adv-x="1335"
   d="M 1105,0 L 778,535 432,535 432,0 137,0 137,1409 841,1409 C 1009,1409 1139,1373 1230,1301 1321,1228 1367,1124 1367,989 1367,890 1339,805 1283,734 1227,662 1151,615 1056,592 L 1437,0 1105,0 Z M 1070,977 C 1070,1112 983,1180 810,1180 L 432,1180 432,764 818,764 C 901,764 963,783 1006,820 1049,857 1070,910 1070,977 Z"
   id="glyph94" />
   <glyph
   unicode="Q"
   horiz-adv-x="1461"
   d="M 1507,711 C 1507,523 1461,367 1369,242 1276,117 1148,37 983,4 1006,-62 1038,-110 1079,-139 1120,-168 1177,-183 1251,-183 1290,-183 1330,-180 1370,-173 L 1368,-375 C 1284,-394 1203,-403 1126,-403 1017,-403 927,-373 856,-312 785,-251 727,-151 684,-10 494,8 347,81 242,208 137,335 84,502 84,711 84,937 147,1113 272,1240 397,1367 572,1430 795,1430 1018,1430 1193,1366 1319,1238 1444,1110 1507,934 1507,711 Z M 1206,711 C 1206,863 1170,982 1098,1069 1026,1155 925,1198 795,1198 663,1198 561,1155 489,1070 417,984 381,864 381,711 381,556 418,434 491,345 564,256 665,211 793,211 925,211 1027,254 1099,341 1170,428 1206,551 1206,711 Z"
   id="glyph95" />
   <glyph
   unicode="O"
   horiz-adv-x="1461"
   d="M 1507,711 C 1507,564 1478,435 1420,324 1362,213 1279,128 1171,69 1063,10 937,-20 793,-20 572,-20 398,45 273,176 147,306 84,484 84,711 84,937 147,1113 272,1240 397,1367 572,1430 795,1430 1018,1430 1193,1366 1319,1238 1444,1110 1507,934 1507,711 Z M 1206,711 C 1206,863 1170,982 1098,1069 1026,1155 925,1198 795,1198 663,1198 561,1155 489,1070 417,984 381,864 381,711 381,556 418,435 492,346 565,257 666,212 793,212 925,212 1027,255 1099,342 1170,429 1206,552 1206,711 Z"
   id="glyph96" />
   <glyph
   unicode="M"
   horiz-adv-x="1462"
   d="M 1307,0 L 1307,854 C 1307,873 1307,893 1308,912 1308,931 1311,1014 1317,1161 1270,982 1235,857 1212,786 L 958,0 748,0 494,786 387,1161 C 395,1006 399,904 399,854 L 399,0 137,0 137,1409 532,1409 784,621 806,545 854,356 917,582 1176,1409 1569,1409 1569,0 1307,0 Z"
   id="glyph97" />
   <glyph
   unicode="L"
   horiz-adv-x="1081"
   d="M 137,0 L 137,1409 432,1409 432,228 1188,228 1188,0 137,0 Z"
   id="glyph98" />
   <glyph
   unicode="H"
   horiz-adv-x="1229"
   d="M 1046,0 L 1046,604 432,604 432,0 137,0 137,1409 432,1409 432,848 1046,848 1046,1409 1341,1409 1341,0 1046,0 Z"
   id="glyph99" />
   <glyph
   unicode="F"
   horiz-adv-x="1059"
   d="M 432,1181 L 432,745 1153,745 1153,517 432,517 432,0 137,0 137,1409 1176,1409 1176,1181 432,1181 Z"
   id="glyph100" />
   <glyph
   unicode="D"
   horiz-adv-x="1271"
   d="M 1393,715 C 1393,570 1365,443 1308,335 1251,226 1170,143 1066,86 961,29 842,0 707,0 L 137,0 137,1409 647,1409 C 884,1409 1068,1349 1198,1230 1328,1110 1393,938 1393,715 Z M 1096,715 C 1096,866 1057,982 978,1062 899,1141 787,1181 641,1181 L 432,1181 432,228 682,228 C 809,228 909,272 984,359 1059,446 1096,565 1096,715 Z"
   id="glyph101" />
   <glyph
   unicode="C"
   horiz-adv-x="1376"
   d="M 795,212 C 973,212 1097,301 1166,480 L 1423,383 C 1368,247 1287,146 1180,80 1073,13 944,-20 795,-20 568,-20 393,44 270,173 146,301 84,480 84,711 84,942 144,1120 263,1244 382,1368 555,1430 782,1430 947,1430 1082,1397 1186,1331 1290,1264 1363,1167 1405,1038 L 1145,967 C 1123,1038 1080,1094 1016,1136 951,1177 875,1198 788,1198 655,1198 554,1157 485,1074 416,991 381,870 381,711 381,549 417,425 488,340 559,255 661,212 795,212 Z"
   id="glyph102" />
   <glyph
   unicode="B"
   horiz-adv-x="1271"
   d="M 1386,402 C 1386,274 1338,175 1242,105 1146,35 1013,0 842,0 L 137,0 137,1409 782,1409 C 954,1409 1084,1379 1173,1320 1261,1260 1305,1172 1305,1055 1305,975 1283,908 1239,853 1194,798 1127,760 1036,741 1150,728 1237,692 1297,634 1356,575 1386,498 1386,402 Z M 1008,1015 C 1008,1078 988,1123 948,1150 907,1177 847,1190 768,1190 L 432,1190 432,841 770,841 C 853,841 914,856 952,885 989,914 1008,957 1008,1015 Z M 1090,425 C 1090,557 995,623 806,623 L 432,623 432,219 817,219 C 912,219 981,236 1025,271 1068,305 1090,356 1090,425 Z"
   id="glyph103" />
   <glyph
   unicode="A"
   horiz-adv-x="1398"
   d="M 1133,0 L 1008,360 471,360 346,0 51,0 565,1409 913,1409 1425,0 1133,0 Z M 739,1192 L 733,1170 C 726,1146 718,1119 709,1088 700,1057 642,889 537,582 L 942,582 803,987 760,1123 739,1192 Z"
   id="glyph104" />
   <glyph
   unicode="/"
   horiz-adv-x="551"
   d="M 20,-41 L 311,1484 549,1484 263,-41 20,-41 Z"
   id="glyph105" />
   <glyph
   unicode=" "
   horiz-adv-x="572"
   id="glyph106" />
  </font>
</defs>
</svg>
